<svg id="Layer_1" data-name="Layer 1" xmlns="http://www.w3.org/2000/svg" viewBox="0 0 256 256"><defs><style>.cls-1{fill:#fd0;}.cls-2{fill:#efc803;}.cls-3{fill:#effafe;}.cls-4{fill:#eb5639;}.cls-5{fill:#d84936;}.cls-6{fill:#40bdff;}.cls-7{fill:#e4ebed;}.cls-8{fill:#263238;}</style></defs><title>idea job seeker employee unemployee work</title><path class="cls-1" d="M132,17.14A60.65,60.65,0,0,0,98.71,128.48l.13.08h66.33l.13-.08A60.65,60.65,0,0,0,132,17.14Z"/><path class="cls-2" d="M132,17.14c-1.69,0-3.35.09-5,.22a60.64,60.64,0,0,1,28.29,111.12l-.12.08h10l.13-.08A60.65,60.65,0,0,0,132,17.14Z"/><path class="cls-3" d="M142.67,64.59a7.78,7.78,0,0,0-5.83,2.65,2.16,2.16,0,0,1-3,0,7.75,7.75,0,0,0-11.67,0,2.16,2.16,0,0,1-3,0,7.77,7.77,0,0,0-13.62,5.13v56.2h44.91V72.37A7.79,7.79,0,0,0,142.67,64.59Z"/><path class="cls-4" d="M164.15,210.31l-16.67,3.42a2,2,0,0,1-.8,0L128,209.9l-18.67,3.83a2,2,0,0,1-.8,0l-11.67-3.42v15.11h67.3Z"/><polygon class="cls-5" points="159.15 211.34 159.15 225.42 164.15 225.42 164.15 210.31 159.15 211.34"/><path class="cls-1" d="M164.15,161.92H96.85v45.31l12.07,2.5,18.67-3.83a2,2,0,0,1,.8,0l18.67,3.83,17.08-3.5Z"/><path class="cls-6" d="M161.38,142.36H99.62a2.89,2.89,0,0,0,.12,5.77h61.52a2.89,2.89,0,0,0,.12-5.77Z"/><path class="cls-6" d="M161.38,132.58H99.62a2.89,2.89,0,0,0,.12,5.77h61.52a2.89,2.89,0,0,0,.12-5.77Z"/><path class="cls-6" d="M161.38,152.15H99.62a2.89,2.89,0,0,0,.12,5.77h61.52a2.89,2.89,0,0,0,.12-5.77Z"/><polygon class="cls-1" points="165.47 229.42 106.53 229.42 136 243.78 165.47 229.42"/><polygon class="cls-2" points="150.47 229.42 128.5 240.12 136 243.78 165.47 229.42 150.47 229.42"/><path class="cls-6" d="M161.38,142.36H99.62a2.89,2.89,0,0,0,.12,5.77h61.52a2.89,2.89,0,0,0,.12-5.77Z"/><path class="cls-6" d="M161.38,132.58H99.62a2.89,2.89,0,0,0,.12,5.77h61.52a2.89,2.89,0,0,0,.12-5.77Z"/><path class="cls-6" d="M161.38,152.15H99.62a2.89,2.89,0,0,0,.12,5.77h61.52a2.89,2.89,0,0,0,.12-5.77Z"/><path class="cls-7" d="M142.67,64.59a7.72,7.72,0,0,0-2.5.42,7.79,7.79,0,0,1,5.28,7.36v56.2h5V72.37A7.79,7.79,0,0,0,142.67,64.59Z"/><path class="cls-6" d="M156.38,142.36H94.62a2.89,2.89,0,0,0,.12,5.77h61.52a2.89,2.89,0,0,0,.12-5.77Z"/><path class="cls-6" d="M156.38,132.58H94.62a2.89,2.89,0,0,0,.12,5.77h61.52a2.89,2.89,0,0,0,.12-5.77Z"/><path class="cls-6" d="M156.38,152.15H94.62a2.89,2.89,0,0,0,.12,5.77h61.52a2.89,2.89,0,0,0,.12-5.77Z"/><path class="cls-8" d="M89.45,130.31a7.36,7.36,0,0,0-.24,10,7.35,7.35,0,0,0,0,9.78,7.33,7.33,0,0,0-1.15,8,2.49,2.49,0,0,0-.71,1.74v67.5a2.53,2.53,0,0,0,1.41,2.25l38.15,18.58a2.5,2.5,0,0,0,2.19,0l38.15-18.58a2.52,2.52,0,0,0,1.41-2.25v-67.5a2.49,2.49,0,0,0-.71-1.74,7.38,7.38,0,0,0-1.14-8,7.38,7.38,0,0,0,0-9.78,7.38,7.38,0,0,0-.24-10,65.15,65.15,0,1,0-77.1,0ZM128,243.22l-27.3-13.29H155.3Zm35.65-18.29H92.35v-14l16.07,3.3a2.52,2.52,0,0,0,1,0L128,210.41l18.57,3.81a2.51,2.51,0,0,0,1,0l16.07-3.3Zm0-19.1-16.58,3.4-18.57-3.81a2.52,2.52,0,0,0-1,0l-18.57,3.81-16.57-3.4v-43.4h71.3Zm-2.39-48.4H94.74a2.39,2.39,0,0,1-.1-4.77h66.72a2.39,2.39,0,0,1-.1,4.77Zm0-9.78H94.74a2.39,2.39,0,0,1-.1-4.77h66.72a2.39,2.39,0,0,1-.1,4.77Zm0-9.78H94.74a2.39,2.39,0,0,1-.1-4.77h66.72a2.39,2.39,0,0,1-.1,4.77ZM106,128.06V72.37a7.27,7.27,0,0,1,12.74-4.8,2.58,2.58,0,0,0,3.75,0,7.25,7.25,0,0,1,10.92,0,2.58,2.58,0,0,0,3.75,0A7.27,7.27,0,0,1,150,72.37v55.7ZM128,17.64a60.15,60.15,0,0,1,33,110.43H155V72.37a12.27,12.27,0,0,0-19.62-9.84,12.24,12.24,0,0,0-14.67,0A12.27,12.27,0,0,0,101,72.37v55.7H95A60.15,60.15,0,0,1,128,17.64Z"/><path class="cls-8" d="M32.14,80.28H55.57a2.5,2.5,0,0,0,0-5H32.14a2.5,2.5,0,1,0,0,5Z"/><path class="cls-8" d="M200.43,80.28h23.43a2.5,2.5,0,0,0,0-5H200.43a2.5,2.5,0,0,0,0,5Z"/><path class="cls-8" d="M75,127.23,58.45,143.8A2.5,2.5,0,0,0,62,147.34l16.57-16.57A2.5,2.5,0,0,0,75,127.23Z"/><path class="cls-8" d="M181,28.34l16.57-16.57A2.5,2.5,0,0,0,194,8.23L177.45,24.8A2.5,2.5,0,1,0,181,28.34Z"/><path class="cls-8" d="M181,127.23a2.5,2.5,0,1,0-3.54,3.54L194,147.34a2.5,2.5,0,0,0,3.54-3.54Z"/><path class="cls-8" d="M75,28.34a2.5,2.5,0,0,0,3.54-3.54L62,8.23a2.5,2.5,0,0,0-3.54,3.54Z"/><path class="cls-1" d="M52.75,129.57h-4v-4a1,1,0,0,0-2,0v4h-4a1,1,0,0,0,0,2h4v4a1,1,0,0,0,2,0v-4h4a1,1,0,0,0,0-2Z"/><path class="cls-1" d="M227,181.5h-4v-4a1,1,0,0,0-2,0v4h-4a1,1,0,0,0,0,2h4v4a1,1,0,0,0,2,0v-4h4a1,1,0,0,0,0-2Z"/><path class="cls-6" d="M175.15,15h-4V11a1,1,0,0,0-2,0v4h-4a1,1,0,0,0,0,2h4v4a1,1,0,0,0,2,0V17h4a1,1,0,0,0,0-2Z"/><path class="cls-6" d="M29.64,35.52a6,6,0,1,1,6-6A6,6,0,0,1,29.64,35.52Zm0-10a4,4,0,1,0,4,4A4,4,0,0,0,29.64,25.52Z"/><path class="cls-1" d="M68.85,222a6,6,0,1,1,6-6A6,6,0,0,1,68.85,222Zm0-10a4,4,0,1,0,4,4A4,4,0,0,0,68.85,212Z"/><path class="cls-1" d="M226.36,41a6,6,0,1,1,6-6A6,6,0,0,1,226.36,41Zm0-10a4,4,0,1,0,4,4A4,4,0,0,0,226.36,31Z"/><path class="cls-6" d="M73.85,164.62H71.27l1.83-1.83a1,1,0,0,0-1.41-1.41l-1.83,1.83v-2.59a1,1,0,0,0-2,0v2.59L66,161.38a1,1,0,0,0-1.41,1.41l1.83,1.83H63.85a1,1,0,0,0,0,2h2.59l-1.83,1.83A1,1,0,0,0,66,169.86L67.85,168v2.59a1,1,0,0,0,2,0V168l1.83,1.83a1,1,0,0,0,1.41-1.41l-1.83-1.83h2.59a1,1,0,0,0,0-2Z"/><path class="cls-6" d="M187.15,170.62h-2.59l1.83-1.83a1,1,0,0,0-1.41-1.41l-1.83,1.83v-2.59a1,1,0,0,0-2,0v2.59l-1.83-1.83a1,1,0,0,0-1.41,1.41l1.83,1.83h-2.59a1,1,0,1,0,0,2h2.59l-1.83,1.83a1,1,0,0,0,1.41,1.41l1.83-1.83v2.59a1,1,0,0,0,2,0V174l1.83,1.83a1,1,0,0,0,1.41-1.41l-1.83-1.83h2.59a1,1,0,0,0,0-2Z"/><path class="cls-6" d="M214,108.81h-2.59l1.83-1.83a1,1,0,0,0-1.41-1.41L210,107.4v-2.59a1,1,0,0,0-2,0v2.59l-1.83-1.83a1,1,0,0,0-1.41,1.41l1.83,1.83H204a1,1,0,0,0,0,2h2.59l-1.83,1.83a1,1,0,0,0,1.41,1.41l1.83-1.83v2.59a1,1,0,0,0,2,0v-2.59l1.83,1.83a1,1,0,0,0,1.41-1.41l-1.83-1.83H214a1,1,0,0,0,0-2Z"/></svg>